<?xml version="1.0" encoding="UTF-8"?>
<svg xmlns="http://www.w3.org/2000/svg" id="Camada_1" data-name="Camada 1" viewBox="0 0 500 500">
  <defs>
    <style>      .cls-1 {        fill: #ffffff;      }      .cls-2 {        fill: none;        stroke: #ffffff;        stroke-miterlimit: 10;      }    </style>
  </defs>
  <path class="cls-2" d="M296.7,187.99c5.13,11.01,5.42,22.27.86,33.8-4.91,12.42-13.1,21.1-24.54,26.06-11.46,4.96-23.39,4.98-35.8.07-11.54-4.56-19.56-12.48-24.06-23.75-4.52-11.27-4.32-23.11.6-35.53l82.95-.64Z"></path>
  <path class="cls-2" d="M234.33,201.69c-4.97-11.08-5.1-22.35-.37-33.81,5.09-12.35,13.4-20.91,24.91-25.7,11.53-4.8,23.46-4.64,35.79.44,11.47,4.73,19.38,12.76,23.72,24.1,4.36,11.33,3.98,23.17-1.11,35.52l-82.95-.55Z"></path>
  <path class="cls-2" d="M184.37,170.3c-5.04-11.05-5.23-22.32-.58-33.81,5.02-12.38,13.27-20.99,24.75-25.86,11.5-4.87,23.43-4.79,35.8.22,11.5,4.66,19.46,12.64,23.87,23.95,4.43,11.31,4.13,23.15-.89,35.52l-82.95-.04Z"></path>
  <path class="cls-1" d="M393.47,263.9c1.85,1.49,2.88,3.44,3.08,5.86.21,2.61-.47,4.84-2.05,6.7-1.58,1.86-3.67,2.9-6.28,3.11-2.42.2-4.51-.5-6.28-2.08-1.77-1.59-2.76-3.68-2.97-6.29"></path>
  <path class="cls-1" d="M69.65,298.9c6.36,0,12.13.61,17.29,1.83,5.17,1.22,9.33,2.87,12.48,4.95,3.16,2.08,5.76,4.45,7.83,7.12,2.06,2.67,3.21,5.48,3.44,8.45.23,2.96-.03,5.92-.76,8.89-.74,2.96-2.3,5.78-4.7,8.44-2.39,2.67-5.19,5.04-8.4,7.12-3.21,2.08-7.15,3.73-11.84,4.95-4.68,1.22-9.72,1.83-15.12,1.83-11.76,0-21.41-2.7-28.94-8.1-7.53-5.4-11.3-12.24-11.3-20.51h12.22c.1,1.47.53,2.99,1.3,4.57.76,1.58,1.92,3.17,3.47,4.79,1.55,1.62,3.38,3.07,5.5,4.35,2.11,1.28,4.75,2.32,7.9,3.12,3.16.8,6.54,1.2,10.16,1.2,9.67,0,17.15-2.23,22.45-6.68,4.02-3.4,5.8-7.25,5.35-11.53-.46-4.41-3.13-7.92-8.02-10.52-4.53-2.44-10.36-3.66-17.49-3.66-15.83,0-27.67-3.07-35.51-9.2-5.6-4.45-8.25-9.73-7.94-15.82.36-5.8,3.28-10.9,8.78-15.31,6.72-5.46,15.65-8.38,26.8-8.76.81-.04,1.63-.06,2.44-.06,5.8,0,11.16.56,16.07,1.67,4.91,1.11,9.34,2.79,13.29,5.04,3.94,2.25,7.06,5.3,9.35,9.17,2.29,3.87,3.46,8.34,3.51,13.42l-13.82-.38c.05-5.42-2.62-9.81-8.02-13.17-5.4-3.36-12.04-5.04-19.93-5.04-8.86,0-15.73,1.91-20.62,5.74-3.82,2.98-5.42,6.3-4.81,9.96.61,3.87,3.59,6.91,8.93,9.14,4.84,2.02,11.05,3.03,18.63,3.03Z"></path>
  <path class="cls-1" d="M188.76,350.52l-12.68,1.45v-15.63c-6.77,10.76-16.52,16.13-29.24,16.13-8.04,0-14.48-2.47-19.32-7.4-4.84-4.94-7.25-12.11-7.25-21.52v-32.57l12.68-3.54v32.02c0,7.9,1.57,13.63,4.7,17.21,3.13,3.57,7.34,5.36,12.64,5.36,3.1,0,5.98-.51,8.63-1.54,2.65-1.03,4.9-2.37,6.76-4.03,1.86-1.66,3.51-3.62,4.96-5.89,1.45-2.27,2.6-4.58,3.44-6.93.84-2.35,1.51-4.81,2.02-7.37v-25.6l12.68-3.2v63.09Z"></path>
  <path class="cls-1" d="M394.82,287.43v64.53h-12.68v-60.62l12.68-3.92Z"></path>
  <path class="cls-1" d="M405.89,330.16h11.3c.36,2.56,1.81,4.87,4.35,6.93,2.54,2.06,5.43,3.59,8.67,4.6,3.23,1.01,6.35,1.51,9.35,1.51,7.38,0,12.73-1.66,16.04-4.98,2.55-2.56,3.18-5.29,1.91-8.19-1.32-3.02-4.25-5.1-8.78-6.24-2.09-.5-4.38-.76-6.87-.76h-7.79c-9.11,0-16.37-2.18-21.76-6.55-4.43-3.57-6.57-7.67-6.41-12.29.15-4.87,2.88-8.89,8.17-12.04,5.8-3.49,13.82-5.23,24.05-5.23,9.47,0,17.31,1.91,23.52,5.73,6.21,3.82,9.32,8.66,9.32,14.49h-10.46c-.05-2.52-1.27-4.69-3.67-6.52-2.39-1.83-5.17-3.13-8.32-3.91-3.16-.78-6.36-1.17-9.62-1.17-8.2,0-13.92,1.62-17.18,4.85-2.34,2.31-2.78,4.77-1.3,7.37,1.58,2.77,4.73,4.6,9.47,5.48,1.73.34,3.59.5,5.57.5h6.41c10.38,0,18.27,2.42,23.67,7.25,4.22,3.78,6.01,8.17,5.35,13.17-.66,5.08-3.67,9.33-9.01,12.73-5.85,3.7-13.52,5.55-22.98,5.55-5.45,0-10.65-.91-15.62-2.74-4.96-1.83-9.06-4.47-12.29-7.94-3.23-3.47-4.93-7.34-5.08-11.63Z"></path>
  <path class="cls-1" d="M270.49,296.16c-7.31-6.15-16.68-9.23-28.14-9.23-6.36,0-12.06,1.09-17.1,3.28-5.04,2.19-9.29,5.13-12.75,8.82v-11.6l-12.68,3.4v102.11l12.68-7.84v-44.62c3.46,3.61,7.71,6.51,12.75,8.7,5.04,2.18,10.74,3.28,17.1,3.28,7.08,0,13.62-1.48,19.62-4.44,6.01-2.96,10.75-6.96,14.24-12.01,3.49-5.04,5.23-10.48,5.23-16.32,0-9.54-3.65-17.38-10.96-23.54ZM260.72,336.15c-5.37,4.71-12.05,7.06-20.04,7.06-4.48,0-8.59-.78-12.33-2.33-3.74-1.55-6.73-3.53-8.97-5.92-2.24-2.4-3.96-4.93-5.15-7.59-1.2-2.67-1.77-5.22-1.72-7.66,0-2.69.6-5.38,1.79-8.07,1.2-2.69,2.91-5.2,5.15-7.53,2.24-2.33,5.2-4.23,8.9-5.7,3.69-1.47,7.8-2.21,12.33-2.21,8.65,0,15.5,2.2,20.54,6.59,5.04,4.39,7.56,10.03,7.56,16.92,0,6.26-2.69,11.74-8.06,16.45Z"></path>
  <path class="cls-1" d="M361.65,296.16c-7.31-6.15-16.68-9.23-28.14-9.23-6.36,0-12.06,1.09-17.1,3.28-5.04,2.19-9.29,5.13-12.75,8.82v-11.6l-12.68,3.7v101.82l12.68-7.79v-44.67c3.46,3.61,7.71,6.51,12.75,8.7,5.04,2.18,10.74,3.28,17.1,3.28,7.08,0,13.62-1.48,19.62-4.44,6.01-2.96,10.75-6.96,14.24-12.01,3.49-5.04,5.23-10.48,5.23-16.32,0-9.54-3.65-17.38-10.96-23.54ZM351.88,336.15c-5.37,4.71-12.05,7.06-20.04,7.06-4.48,0-8.59-.78-12.33-2.33-3.74-1.55-6.73-3.53-8.97-5.92-2.24-2.4-3.96-4.93-5.15-7.59-1.2-2.67-1.77-5.22-1.72-7.66,0-2.69.6-5.38,1.79-8.07,1.2-2.69,2.91-5.2,5.15-7.53,2.24-2.33,5.2-4.23,8.9-5.7,3.69-1.47,7.8-2.21,12.33-2.21,8.65,0,15.5,2.2,20.54,6.59,5.04,4.39,7.56,10.03,7.56,16.92,0,6.26-2.69,11.74-8.06,16.45Z"></path>
</svg>
